<?xml version="1.0" encoding="utf-8"?>
<!-- Generator: Adobe Illustrator 23.0.1, SVG Export Plug-In . SVG Version: 6.00 Build 0)  -->
<svg version="1.1" id="Layer_1" xmlns="http://www.w3.org/2000/svg" xmlns:xlink="http://www.w3.org/1999/xlink" x="0px" y="0px"
	 viewBox="0 0 24 24" style="enable-background:new 0 0 24 24;" xml:space="preserve">
<style type="text/css">
	.st0{fill:#FFFFFF;}
</style>
<title>Discord icon</title>
<path class="st0" d="M15.4,3.7L15.4,3.7L15,4.1c3.4,1,5,2.5,5,2.5c-2.2-1.1-4.2-1.6-6.1-1.9c-1.4-0.2-2.9-0.1-4.1,0H9.5
	C8.8,4.7,7.1,5,4.9,5.9C4.2,6.2,3.7,6.5,3.7,6.5S5.4,4.8,9,3.9L8.8,3.7c0,0-2.7-0.1-5.7,2.1c0,0-3,5.2-3,11.5c0,0,1.6,2.9,6.1,3
	c0,0,0.7-0.9,1.3-1.6C5,17.9,4,16.3,4,16.3s0.2,0.1,0.5,0.3h0.1h0.1l0,0c0,0,0,0,0.1,0C5.4,17,6,17.2,6.4,17.4
	c0.8,0.3,1.7,0.7,3,0.9c1.5,0.2,3.3,0.3,5.3,0c1-0.2,2-0.4,3-0.9c0.6-0.3,1.4-0.7,2.3-1.2c0,0-1,1.5-3.6,2.3
	c0.5,0.8,1.3,1.6,1.3,1.6c4.5-0.1,6.2-3,6.3-2.8c0-6.3-3-11.5-3-11.5C18.2,3.8,15.7,3.8,15.4,3.7L15.4,3.7L15.4,3.7z M15.7,11
	c1.2,0,2.1,1,2.1,2.2s-0.9,2.2-2.1,2.2s-2.1-1-2.1-2.2C13.6,11.9,14.5,11,15.7,11L15.7,11z M8.2,11c1.1,0,2.1,1,2.1,2.2
	s-0.9,2.2-2.1,2.2s-2.1-1-2.1-2.2C6.1,11.9,7.1,11,8.2,11L8.2,11z"/>
</svg>
