<?xml version="1.0" encoding="utf-8"?>
<!-- Generator: Adobe Illustrator 23.0.1, SVG Export Plug-In . SVG Version: 6.00 Build 0)  -->
<svg version="1.1" xmlns="http://www.w3.org/2000/svg" xmlns:xlink="http://www.w3.org/1999/xlink" x="0px" y="0px"
	 viewBox="0 0 24 24" style="enable-background:new 0 0 24 24;" xml:space="preserve">
<style type="text/css">
	.st0{fill:#FFFFFF;}
</style>
<g id="Layer_1">
	<title>Discord icon</title>
</g>
<g id="Layer_2">
	<g>
		<polygon class="st0" points="11,11.8 12.1,11.8 12.3,11.1 11.2,11.1 		"/>
		<path class="st0" d="M0,6.3v10.6c0,1.1,0.9,2,2,2h3.4v4.9l4.9-4.9H22c1.1,0,2-0.9,2-2V6.3c0-1.1-0.9-2-2-2H2C0.9,4.3,0,5.2,0,6.3z
			 M17.3,9.2v1.2v0.8h-0.8h-1.3l-0.2,0.7h0.7h0.8v0.8v1.2v0.8h-0.8h-1.3l-0.4,1.7l-0.1,0.6h-0.6H12H11l0.2-0.9l0.3-1.4h-1.1
			l-0.4,1.7L10,16.8H9.4H7.9H6.9l0.2-0.9l0.3-1.4H6.7H6v-0.8v-1.2v-0.8h0.8H8l0.2-0.7H7.4H6.7v-0.8V9.2V8.4h0.8h1.3l0.4-1.7l0.1-0.6
			h0.6h1.5h0.9l-0.2,0.9l-0.3,1.4h1.1l0.4-1.7l0.1-0.6h0.6h1.5h0.9l-0.2,0.9l-0.3,1.4h0.7h0.8V9.2z"/>
	</g>
</g>
</svg>
