<?xml version="1.0" encoding="utf-8"?>
<!-- Generator: Adobe Illustrator 23.0.1, SVG Export Plug-In . SVG Version: 6.00 Build 0)  -->
<svg version="1.1" id="Layer_1" xmlns="http://www.w3.org/2000/svg" xmlns:xlink="http://www.w3.org/1999/xlink" x="0px" y="0px"
	 viewBox="0 0 24 24" style="enable-background:new 0 0 24 24;" xml:space="preserve">
<style type="text/css">
	.st0{fill:#313131;}
</style>
<title>Reddit icon</title>
<path class="st0" d="M24,11.8c0-1.5-1.2-2.7-2.7-2.7c-0.7,0-1.3,0.3-1.8,0.7c-1.8-1.2-4.2-1.9-6.8-2l1.5-4.5l3.9,0.9
	c0,1.2,1,2.2,2.2,2.2s2.2-1,2.2-2.2S21.5,2,20.3,2c-0.9,0-1.7,0.6-2.1,1.4l-4.2-1l0,0l-0.4-0.1l-1.8,5.5C9,7.9,6.5,8.6,4.7,9.8
	C4,9.3,3.4,9.1,2.7,9.1C1.2,9.1,0,10.3,0,11.8c0,1,0.5,1.8,1.3,2.3c0,0.3-0.1,0.5-0.1,0.8C1.2,18.8,6,22,11.9,22l0,0
	c5.9,0,10.7-3.2,10.7-7.1c0-0.3,0-0.5-0.1-0.7C23.5,13.7,24,12.8,24,11.8z M6.7,13.6c0-0.9,0.8-1.7,1.7-1.7s1.7,0.8,1.7,1.7
	s-0.7,1.7-1.7,1.7S6.7,14.5,6.7,13.6z M15.8,18.3c-0.8,0.8-2.1,1.2-3.9,1.2l0,0c-1.8,0-3.1-0.4-3.9-1.2c-0.2-0.2-0.2-0.5,0-0.6
	c0.2-0.2,0.5-0.2,0.6,0c0.6,0.6,1.7,0.9,3.2,0.9s2.6-0.3,3.2-0.9c0.2-0.2,0.5-0.2,0.6,0C16,17.9,16,18.1,15.8,18.3z M15.6,15.2
	c-0.9,0-1.7-0.7-1.7-1.7c0-0.9,0.8-1.7,1.7-1.7s1.7,0.8,1.7,1.7C17.3,14.5,16.5,15.2,15.6,15.2z"/>
</svg>
